<svg xmlns="http://www.w3.org/2000/svg" viewBox="0 0 800 800"><defs><radialGradient id="g"><stop stop-color="#22d3ee" stop-opacity=".55"/><stop offset="1" stop-color="#22d3ee" stop-opacity="0"/></radialGradient><linearGradient id="m" x2="1" y2="1"><stop stop-color="#e8f7ff"/><stop offset=".45" stop-color="#8ed9ef"/><stop offset="1" stop-color="#355a8c"/></linearGradient></defs><circle cx="400" cy="400" r="360" fill="url(#g)"/><g stroke="#22d3ee" stroke-width="8" fill="none" opacity=".8"><circle cx="400" cy="390" r="285"/><circle cx="400" cy="390" r="245"/></g><g fill="url(#m)" stroke="#172b4d" stroke-width="10"><rect x="270" y="180" width="260" height="300" rx="75"/><rect x="315" y="105" width="170" height="95" rx="40"/><path d="M400 105V55"/><circle cx="400" cy="43" r="16" fill="#22d3ee"/><rect x="220" y="270" width="50" height="145" rx="25"/><rect x="530" y="270" width="50" height="145" rx="25"/><path d="M330 480v120h-75v120h105V600h80v120h105V600h-75V480z"/></g><g fill="#07111f" stroke="#22d3ee" stroke-width="8"><rect x="315" y="265" width="60" height="45" rx="20"/><rect x="425" y="265" width="60" height="45" rx="20"/></g><circle cx="345" cy="287" r="12" fill="#fff"/><circle cx="455" cy="287" r="12" fill="#fff"/><path d="M330 370Q400 425 470 370" fill="none" stroke="#8b5cf6" stroke-width="12" stroke-linecap="round"/></svg>